<svg xmlns="http://www.w3.org/2000/svg" width="1024" height="1024" fill="none" viewBox="0 0 200 200">

  <rect width="200" height="200" fill="#ccc"/>

  <g transform="scale(1.09) translate(-7 -7) rotate(7 100 100)">
    <path d="m182.8 48.83c-0.13-7.53-5.65-12.29-16.34-16.11-1.58-9.45-7.99-19.65-15.43-22.92-6.27-2.85-14.44-4.74-17.56-4.44-5.48-1.81-13.33 0.18-18.05 2.53-11.36 5.41-19.31 13.51-23.96 20.61l14.27 3.79c5.32-9.2 18.34-19.57 36.08-22.9 6.33 5.1 9.45 12.9 9.88 19.83-11.99-1.94-27.49-1.24-42.25 4.49l15.69 9.5c8.77-2.17 18.13-2 27.61-0.55-0.2 7.57-1.1 16.45-2.87 26.55l-3.35-0.36 2.74 17.96 3.43-0.8c7.38 3.05 15.3 8.17 20.08 15.42-4.86 7.33-13.56 12.95-27.6 15.96l-7.41 15.56c14.04-2.54 30.98-9.22 37.74-22.93 1.54-3.23 0.66-8.91 1.01-12.98 0.76-8.88-3.32-12.49-7.17-17.03 7.85-5.03 13.72-11.1 13.6-19.19-0.05-3.66-0.08-8.47-0.14-11.99zm-16.34 17.26c0.89-7 1.33-12.96 1.4-19.07 5.33 2.94 9.23 5.45 11.63 8.11-2.22 3.85-6.85 7.71-13.03 10.96z" fill="url(#paint0_linear_343_15295)"/>
    <path d="m65.07 38.15c3.64-7.07 6.74-10.29 18.49-10.39 16.61-0.14 32.64 8.19 45.76 19.35 14.57 12.45 21.59 26.79 19.89 47.21-1.02 12.6-4.67 22.79-8.2 31.94-4.95 10.93-15.34 20.35-32.99 25.06-6.76 2.05-12.41 2.89-16.91 3.32l-30.42-44.38c1.45-4.99-1.57-9.15-1.57-9.15s-1.51-27.62 5.95-62.96z" fill="url(#face_brown)"/>
    <path d="m60.14 57.35c1.72-0.11 3.81-0.17 5.32 0.97 4.68 3.45 7.55 12.43 7.51 20.94-0.15 8.85-2.78 18.81-6.86 22.33-2 1.74-5.38 1.32-7.19 1.05-5.52-0.85-10.83-10.92-10.77-22.83 0.06-9.75 3.96-21.35 8.57-22.46 0.89-0.23 2.25 0 3.42 0z" fill="url(#face_brown_dark)"/>
    <path d="m57.19 61.43c5.02-1.17 8.53 8.78 8.64 18.69 0.11 8.02-3.06 17.8-7.94 17.89-4.83 0.09-7.1-10.77-7.1-17.78 0.02-7.1 1.97-17.76 6.4-18.8z" fill="url(#paint3_linear_343_15295)" stroke="#918770" stroke-miterlimit="10" stroke-width="1.24"/>
    <path d="m96.88 29.76c-8.77 14.8-18.42 33.25-20.02 47.48-0.97 8.83-0.58 21.4-9.7 42.64l-11.04 3.01c0.63-2.86 3.06-7.7 2.6-12.08-0.3-3.05-1.05-5.37-1.59-7.6 3.31 0.52 4.98-0.24 6.06-1.14 5.74-4.69 6.92-15.6 7-21.64 0.13-8.31-2.72-17.71-8-21.65-0.83-0.61-2.28-0.67-2.87-0.67 1.57-7.36 3.94-15.65 8.62-23.4 3.05-5.01 8.54-6.95 15.37-7 4.43-0.03 9 0.7 13.57 2.05z" fill="#9E7247" opacity=".2"/>
    <path d="m54.11 129c0.67-4.76 2.97-8.81 8.9-8.92 10.21-0.2 19.57 8.8 24.9 16.12 5.02 6.83 8.47 16.26 3.47 20.77-1.57 1.42-3.51 1.74-4.4 1.74l-32.87-29.71z" fill="url(#paint4_linear_343_15295)"/>
    <path d="m19.9 147.8 17.51-17.66c2.58-2.62 6.06-3.35 12.57-2.39 14.93 2.26 36.94 20.19 39.43 38.35 0.55 3.98-0.44 7.25-2.66 9.65l-16.14 17.06-50.71-45.01z" fill="url(#paint5_linear_343_15295)"/>
    <path d="m21.22 148.1c5.34-5.71 17.77-2.37 29.7 7.02 12.92 10.45 22.76 24.7 21.7 32.71-1.54 9.59-13.88 9.06-25.34 3.48-12.92-6.49-26.19-20.09-29.87-32.16-1.4-4.93 0.11-8.47 3.81-11.05z" fill="url(#paint6_linear_343_15295)"/>
    <path d="m37.06 162.7c3.26-2.58 10.11 1.81 13.72 6.34 3.21 4.08 3.38 7.22 1.53 9.16-2.3 1.93-8.04-0.06-12.69-5.69-3.35-4.1-4.46-7.94-2.56-9.81z" fill="url(#paint7_linear_343_15295)"/>
    <path d="m101.1 68.71c12.52 0 23.3 10.2 23.3 23.25 0 12.76-10.88 23.02-23.52 22.85-12.18-0.18-22.18-10.15-22.18-22.3 0-12.5 9.81-23.8 22.4-23.8z" fill="url(#eye_frame)"/>
    <path d="m101.1 73.84c9.71 0 17.81 8.72 17.81 18.44 0 9.45-8.24 17.15-18 17-9.36-0.14-16.9-7.63-16.79-16.97 0.13-9.6 7.58-18.47 16.98-18.47z" fill="url(#paint9_linear_343_15295)" stroke="#918770" stroke-miterlimit="10" stroke-width="1.24"/>
  </g>

  <g transform="translate(0 0)">
    <rect x="106" y="166" width="88" height="30" rx="15"
      fill="url(#paint0_linear_343_15295)" fill-opacity=".95"/>
    <text x="150" y="187" fill="url(#face_brown)" font-family="Menlo, Monaco, monospace" font-size="18" font-weight="700" text-anchor="middle">arm64</text>
  </g>

  

  <defs>
    <linearGradient id="paint0_linear_343_15295" x1="91.48" x2="183" y1="69.28" y2="69.28" gradientUnits="userSpaceOnUse">
      <stop stop-color="#242421" offset="0"/>
      <stop stop-color="#282825" offset=".5"/>
      <stop stop-color="#1C1C19" offset="1"/>
    </linearGradient>
    <linearGradient id="face_brown" x1="57.9" x2="149.5" y1="91.19" y2="91.19" gradientUnits="userSpaceOnUse">
      <stop stop-color="#BBA786" offset="0"/>
      <stop stop-color="#DAC79D" offset="1"/>
    </linearGradient>
    <linearGradient id="face_brown_dark" x1="48.14" x2="72.97" y1="79.97" y2="79.97" gradientUnits="userSpaceOnUse">
      <stop stop-color="#908065" offset="0"/>
      <stop stop-color="#6D624A" offset="1"/>
    </linearGradient>
    <linearGradient id="paint3_linear_343_15295" x1="50.78" x2="65.86" y1="80.04" y2="80.04" gradientUnits="userSpaceOnUse">
      <stop stop-color="#49595E" offset="0"/>
      <stop stop-color="#414E52" offset="1"/>
    </linearGradient>
    <linearGradient id="paint4_linear_343_15295" x1="54.11" x2="94.41" y1="139.3" y2="139.3" gradientUnits="userSpaceOnUse">
      <stop stop-color="#242421" offset="0"/>
      <stop stop-color="#11110F" offset="1"/>
    </linearGradient>
    <linearGradient id="paint5_linear_343_15295" x1="17.01" x2="89.72" y1="160.2" y2="160.2" gradientUnits="userSpaceOnUse">
      <stop stop-color="#333330" offset="0"/>
      <stop stop-color="#3A3A37" offset="1"/>
    </linearGradient>
    <linearGradient id="paint6_linear_343_15295" x1="16.99" x2="72.75" y1="169.7" y2="169.7" gradientUnits="userSpaceOnUse">
      <stop stop-color="#22221F" offset="0"/>
      <stop stop-color="#1E1E1B" offset="1"/>
    </linearGradient>
    <linearGradient id="paint7_linear_343_15295" x1="35.89" x2="53.31" y1="170.1" y2="170.1" gradientUnits="userSpaceOnUse">
      <stop offset="0"/>
      <stop stop-color="#070704" offset="1"/>
    </linearGradient>
    <linearGradient id="eye_frame" x1="78.71" x2="124.4" y1="91.76" y2="91.76" gradientUnits="userSpaceOnUse">
      <stop stop-color="#918770" offset="0"/>
      <stop stop-color="#A89976" offset="1"/>
    </linearGradient>
    <linearGradient id="paint9_linear_343_15295" x1="84.12" x2="118.9" y1="91.56" y2="91.56" gradientUnits="userSpaceOnUse">
      <stop stop-color="#49595E" offset="0"/>
      <stop stop-color="#414E52" offset="1"/>
    </linearGradient>
  </defs>
</svg>